<?xml version="1.0" encoding="UTF-8"?>
<svg version="1.2" baseProfile="tiny-ps" xmlns="http://www.w3.org/2000/svg" viewBox="0 0 512 512">
<title>Kaynel</title>
<rect width="512" height="512" fill="#ffffff"/>
<g transform="translate(66,446) scale(0.132,-0.132)" fill="#2563eb">
<path d="M2715 3002 c-27 -26 -138 -128 -245 -227 -107 -98 -215 -198 -240
-221 -25 -23 -58 -54 -75 -69 -16 -15 -52 -48 -80 -73 -27 -26 -107 -100 -177
-166 -74 -68 -125 -123 -121 -130 3 -6 3 -8 -2 -4 -4 4 -14 3 -21 -3 -11 -9
-39 12 -124 92 l-110 103 37 39 c21 21 181 169 355 329 174 161 314 296 311
301 -3 6 -2 7 4 4 5 -3 25 9 43 28 l32 33 -164 1 -164 2 -44 -44 c-25 -24 -90
-83 -144 -132 -55 -50 -107 -97 -116 -105 -9 -8 -39 -35 -66 -60 -27 -25 -95
-87 -150 -137 -56 -51 -106 -93 -110 -93 -5 1 -55 45 -112 98 l-102 97 70 71
c38 40 70 69 70 66 0 -3 11 8 25 24 27 31 38 84 33 158 l-3 49 -75 -2 -75 -2
-102 -102 c-116 -114 -108 -95 -117 -302 l-6 -120 106 -101 106 -100 -68 -66
c-38 -36 -86 -80 -106 -98 l-38 -32 0 -172 1 -171 104 -95 c57 -52 104 -98
105 -101 0 -3 -46 -48 -102 -99 -75 -69 -103 -100 -102 -117 0 -13 1 -89 2
-171 l2 -147 121 -102 c113 -94 125 -101 176 -108 30 -4 56 -5 58 -3 2 2 5 48
6 102 l2 98 -64 57 c-35 31 -80 71 -99 88 l-35 33 35 31 c19 17 68 62 107 101
l73 70 107 -100 c60 -55 198 -183 308 -285 l200 -186 174 -1 c160 0 172 1 160
17 -8 9 -182 173 -386 366 -205 192 -373 353 -373 357 0 4 48 51 106 105 l105
98 37 -35 c53 -50 383 -354 707 -653 l280 -257 65 6 c36 3 109 6 163 6 59 0
96 4 92 9 -3 6 -63 63 -133 128 -70 65 -331 307 -580 538 l-453 420 75 71 c41
40 72 75 68 79 -4 4 -2 5 4 3 10 -3 130 106 370 334 44 43 90 86 101 95 11 10
76 70 144 134 68 63 189 176 268 250 l145 134 -75 6 c-41 4 -114 7 -164 8
l-90 1 -50 -48z m-1261 -965 l109 -102 -103 -95 c-56 -52 -107 -97 -112 -98
-5 -2 -48 35 -96 82 -48 47 -96 92 -107 101 -19 14 -16 19 85 115 58 54 107
99 110 100 3 0 54 -46 114 -103z"/>
</g>
</svg>
